<svg width="512" height="512" viewBox="0 0 512 512" fill="none" xmlns="http://www.w3.org/2000/svg">
<rect width="512" height="112" fill="#05FF00"/>
<rect y="512" width="512" height="109" transform="rotate(-90 0 512)" fill="#0057FF" style="mix-blend-mode:difference"/>
<rect y="400" width="512" height="112" fill="#FFF500" style="mix-blend-mode:difference"/>
<rect x="403" y="512" width="512" height="109" transform="rotate(-90 403 512)" fill="#FF0000" style="mix-blend-mode:difference"/>
<path d="M219 201.36C225.613 201.36 231.267 202.587 235.96 205.04C240.76 207.493 244.387 210.8 246.84 214.96C249.4 219.12 250.68 223.653 250.68 228.56C250.68 235.067 248.76 240.453 244.92 244.72C241.187 248.88 236.173 251.707 229.88 253.2C237.027 253.84 242.84 256.4 247.32 260.88C251.8 265.36 254.04 271.44 254.04 279.12C254.04 285.307 252.547 290.907 249.56 295.92C246.573 300.933 242.307 304.88 236.76 307.76C231.213 310.533 224.813 311.92 217.56 311.92C211.053 311.92 205.08 310.747 199.64 308.4C194.2 305.947 189.453 302.32 185.4 297.52L194.2 289.36C197.72 292.987 201.293 295.653 204.92 297.36C208.653 299.067 212.707 299.92 217.08 299.92C223.8 299.92 229.08 298.053 232.92 294.32C236.76 290.48 238.68 285.36 238.68 278.96C238.68 271.92 236.867 266.96 233.24 264.08C229.613 261.2 224.333 259.76 217.4 259.76H209.4L211.16 248.4H216.6C222.147 248.4 226.733 246.747 230.36 243.44C234.093 240.133 235.96 235.493 235.96 229.52C235.96 224.507 234.36 220.56 231.16 217.68C227.96 214.693 223.64 213.2 218.2 213.2C214.04 213.2 210.2 213.947 206.68 215.44C203.267 216.933 199.747 219.387 196.12 222.8L188.44 214C197.507 205.573 207.693 201.36 219 201.36ZM310.461 202.96V310H295.741V218.64L270.781 233.84L264.381 223.44L297.501 202.96H310.461Z" fill="white"/>
</svg>
